Coordinates
version=1
nRows=17
nColumns=24
inDegrees=yes

Units are S.I. units (second, meters, Newtons, ...)
Angles are in degrees.

endheader
time	pelvis_tilt	pelvis_list	pelvis_rotation	pelvis_tx	pelvis_ty	pelvis_tz	hip_flexion_r	hip_adduction_r	hip_rotation_r	knee_angle_r	ankle_angle_r	subtalar_angle_r	mtp_angle_r	hip_flexion_l	hip_adduction_l	hip_rotation_l	knee_angle_l	ankle_angle_l	subtalar_angle_l	mtp_angle_l	lumbar_extension	lumbar_bending	lumbar_rotation
      6.07000000	      9.57756782	      2.64052661	      7.48207373	     -0.68735733	      0.75603013	      0.41439845	    -14.23749952	      2.48623519	     10.31889062	      6.76311630	      8.51536770	    -15.02915683	      0.00000000	     13.23690348	      2.37526713	     -4.74302789	    -60.20962536	     -0.66604123	    -22.73339535	      0.00000000	    -25.30416447	     -1.70173259	     -2.89436450
      6.08000000	      9.53461375	      2.54422444	      6.40836335	     -0.67680863	      0.75588576	      0.41446599	    -14.86116425	      2.42590354	     11.09275338	      6.53200994	      9.34273045	    -14.72242971	      0.00000000	     14.17586245	      2.34897828	     -5.12472360	    -57.99171528	      0.47181919	    -23.10580499	      0.00000000	    -25.52011950	     -1.95203108	     -1.92122612
      6.09000000	      9.62069896	      2.49107495	      5.47569997	     -0.66618035	      0.75574327	      0.41439003	    -15.62359975	      2.35945057	     11.60980529	      6.25746213	     10.23675586	    -14.30316441	      0.00000000	     14.78712239	      2.30932717	     -5.41711931	    -55.37183038	      1.49546253	    -23.50741023	      0.00000000	    -25.87563565	     -2.19466840	     -1.20393554
      6.10000000	      9.67787963	      2.42840178	      4.69243711	     -0.65544887	      0.75543986	      0.41408081	    -16.33919394	      2.31232024	     11.99444246	      5.91378455	     11.27647418	    -13.70782366	      0.00000000	     15.24165288	      2.31025554	     -5.47677604	    -52.34979983	      2.00209502	    -24.43610273	      0.00000000	    -26.16125389	     -2.37066078	     -0.70015640
      6.11000000	      9.73760201	      2.38082994	      4.00480634	     -0.64457676	      0.75502091	      0.41359556	    -17.03645228	      2.25161711	     12.33143492	      5.49130380	     12.29426115	    -13.24218009	      0.00000000	     15.47905962	      2.33033801	     -5.41706195	    -48.91654221	      2.26785462	    -25.45296406	      0.00000000	    -26.40824635	     -2.52643570	     -0.33874668
      6.12000000	      9.79251416	      2.34621131	      3.38991072	     -0.63355613	      0.75447581	      0.41295537	    -17.70219007	      2.17714146	     12.66681874	      4.97937794	     13.29338951	    -12.90825815	      0.00000000	     15.49865068	      2.36451362	     -5.25167829	    -45.07918761	      2.37597663	    -26.37398677	      0.00000000	    -26.60219410	     -2.66921396	     -0.07533697
      6.13000000	      9.74664266	      2.26693098	      2.90710158	     -0.62237048	      0.75365990	      0.41205888	    -18.24345718	      2.16211219	     12.88263744	      4.39885421	     14.48043510	    -12.34310509	      0.00000000	     15.41438475	      2.42677159	     -4.76332094	    -40.87199967	      2.18257489	    -27.49122205	      0.00000000	    -26.61830109	     -2.69523044	     -0.03328615
      6.14000000	      9.71144416	      2.18073197	      2.43239319	     -0.61103261	      0.75270391	      0.41113912	    -18.76516671	      2.15433988	     13.11276749	      3.73182268	     15.58353524	    -11.95376441	      0.00000000	     15.08855519	      2.43252073	     -4.22565431	    -36.30683803	      2.03252492	    -28.05967380	      0.00000000	    -26.59792579	     -2.72302450	      0.03148791
      6.15000000	      9.53991317	      2.02390825	      2.05783051	     -0.59954054	      0.75139032	      0.41005400	    -19.12598796	      2.23726428	     13.25920578	      3.00488618	     16.87767634	    -11.35816383	      0.00000000	     14.71728562	      2.40125091	     -3.33631997	    -31.45910407	      1.59933818	    -28.63135117	      0.00000000	    -26.36409395	     -2.62699152	      0.01011634
      6.16000000	      9.34913711	      1.81295586	      1.68996913	     -0.58789429	      0.74984165	      0.40899614	    -19.44831832	      2.38442751	     13.39493989	      2.21560406	     18.11959778	    -10.82904222	      0.00000000	     14.18640940	      2.23520532	     -2.37570769	    -26.37626054	      1.15786408	    -28.76549794	      0.00000000	    -26.07022641	     -2.48521671	     -0.00252060
      6.17000000	      9.08133698	      1.52409601	      1.33396806	     -0.57608504	      0.74797397	      0.40797302	    -19.68089165	      2.62061251	     13.49607923	      1.38576098	     19.37552729	    -10.27129798	      0.00000000	     13.60620696	      1.91305831	     -1.30345892	    -21.15922963	      0.55191643	    -28.67928846	      0.00000000	    -25.64833841	     -2.27661704	      0.02242910
      6.18000000	      8.81379581	      1.16645569	      0.96359315	     -0.56410571	      0.74584700	      0.40704229	    -20.00761665	      2.90545464	     13.93826806	      0.68562065	     20.35764308	    -10.21303953	      0.00000000	     12.99173718	      1.38566763	     -0.45793050	    -15.99932436	      0.22595820	    -27.79474002	      0.00000000	    -25.20481083	     -2.01948897	      0.12792572
      6.19000000	      8.51569936	      0.73285620	      0.62861738	     -0.55194057	      0.74343701	      0.40611387	    -20.33089334	      3.28335216	     14.25531530	     -0.00184208	     21.34233089	    -10.06480827	      0.00000000	     12.40502976	      0.71918805	      0.43796119	    -10.99776884	     -0.11573657	    -26.78227345	      0.00000000	    -24.70775174	     -1.69034961	      0.24551034
      6.20000000	      8.18900741	      0.25607513	      0.28501002	     -0.53961061	      0.74078846	      0.40520777	    -20.67406338	      3.69313845	     14.53507911	     -0.63454409	     22.28686628	     -9.85024848	      0.00000000	     11.94953544	     -0.06200458	      1.08926107	     -6.39626660	     -0.11901662	    -25.22861896	      0.00000000	    -24.17628197	     -1.32487592	      0.41355424
      6.21000000	      7.84476668	     -0.19309412	     -0.04955627	     -0.52715790	      0.73800247	      0.40431280	    -21.01959432	      4.07124077	     14.64378098	     -1.25924478	     23.22589428	     -9.54580860	      0.00000000	     11.72961481	     -0.84650660	      1.15558619	     -2.43199008	      0.66541470	    -22.44525165	      0.00000000	    -23.63907062	     -1.01354650	      0.56361179
      6.22000000	      7.51262373	     -0.56789920	     -0.39451133	     -0.51457700	      0.73516235	      0.40333946	    -21.47051717	      4.32969312	     14.83591243	     -1.74968860	     23.95643886	     -9.42101891	      0.00000000	     11.60026681	     -1.53106705	      1.21640996	      1.02034105	      1.61764330	    -19.53727031	      0.00000000	    -23.13693533	     -0.78121638	      0.75213324
      6.23000000	      7.19068386	     -0.86060839	     -0.74288687	     -0.50190060	      0.73230079	      0.40229375	    -21.97794304	      4.46985280	     15.01025129	     -2.18156321	     24.57068255	     -9.32966865	      0.00000000	     11.53955447	     -2.12501378	      1.54273939	      3.94759423	      2.56992619	    -16.87045572	      0.00000000	    -22.67078444	     -0.64614332	      0.93678307
